<svg width="28" height="26" viewBox="0 0 28 26" fill="none" xmlns="http://www.w3.org/2000/svg">
<g clip-path="url(#clip0_213_15)">
<path d="M21.875 24.375C20.8367 24.375 19.8216 24.0891 18.9583 23.5534C18.0949 23.0177 17.422 22.2564 17.0246 21.3656C16.6273 20.4748 16.5233 19.4946 16.7259 18.5489C16.9285 17.6033 17.4285 16.7346 18.1627 16.0529C18.8969 15.3711 19.8324 14.9068 20.8508 14.7187C21.8692 14.5306 22.9248 14.6271 23.8841 14.9961C24.8434 15.3651 25.6633 15.9899 26.2402 16.7916C26.8171 17.5933 27.125 18.5358 27.125 19.5C27.1234 20.7925 26.5698 22.0316 25.5855 22.9455C24.6013 23.8594 23.2669 24.3735 21.875 24.375ZM21.875 16.25C21.1828 16.25 20.5061 16.4406 19.9305 16.7977C19.3549 17.1548 18.9063 17.6624 18.6414 18.2563C18.3765 18.8501 18.3072 19.5036 18.4423 20.134C18.5773 20.7645 18.9106 21.3436 19.4001 21.7981C19.8896 22.2526 20.5133 22.5622 21.1922 22.6876C21.8711 22.813 22.5749 22.7486 23.2144 22.5026C23.8539 22.2566 24.4006 21.8401 24.7851 21.3056C25.1697 20.7711 25.375 20.1428 25.375 19.5C25.374 18.6383 25.0049 17.8123 24.3487 17.203C23.6926 16.5937 22.8029 16.251 21.875 16.25Z" fill="white"/>
<path d="M6.125 24.375C5.08665 24.375 4.07162 24.0891 3.20826 23.5534C2.3449 23.0177 1.67199 22.2564 1.27463 21.3656C0.877275 20.4748 0.773307 19.4946 0.97588 18.5489C1.17845 17.6033 1.67847 16.7346 2.41269 16.0529C3.14692 15.3711 4.08238 14.9068 5.10078 14.7187C6.11918 14.5306 7.17478 14.6271 8.13409 14.9961C9.0934 15.3651 9.91334 15.9899 10.4902 16.7916C11.0671 17.5933 11.375 18.5358 11.375 19.5C11.3734 20.7925 10.8198 22.0316 9.83555 22.9455C8.85133 23.8594 7.5169 24.3735 6.125 24.375ZM6.125 16.25C5.43277 16.25 4.75608 16.4406 4.18051 16.7977C3.60493 17.1548 3.15633 17.6624 2.89142 18.2563C2.62652 18.8501 2.55721 19.5036 2.69225 20.134C2.8273 20.7645 3.16064 21.3436 3.65013 21.7981C4.13961 22.2526 4.76325 22.5622 5.44219 22.6876C6.12112 22.813 6.82485 22.7486 7.46439 22.5026C8.10394 22.2566 8.65056 21.8401 9.03515 21.3056C9.41973 20.7711 9.625 20.1428 9.625 19.5C9.62396 18.6383 9.25488 17.8123 8.59872 17.203C7.94257 16.5937 7.05294 16.251 6.125 16.25Z" fill="white"/>
<path d="M14.875 21.9375H13.125V16.5863L8.38682 12.1875C8.05906 11.8824 7.875 11.4691 7.875 11.0381C7.875 10.6072 8.05906 10.1938 8.38682 9.88876L12.3995 6.16272C12.7279 5.8584 13.173 5.6875 13.637 5.6875C14.101 5.6875 14.546 5.8584 14.8745 6.16272L18.7373 9.74998H23.625V11.3744L18.0122 11.375L13.6372 7.31248L9.62503 11.0377L14.875 15.9127V21.9375Z" fill="white"/>
<path d="M18.8125 6.5C18.2068 6.5 17.6147 6.33322 17.1111 6.02074C16.6074 5.70827 16.2149 5.26413 15.9831 4.74451C15.7513 4.22488 15.6907 3.6531 15.8088 3.10146C15.927 2.54983 16.2187 2.04312 16.647 1.64542C17.0753 1.24771 17.621 0.97687 18.215 0.867143C18.8091 0.757416 19.4249 0.813732 19.9845 1.02897C20.5441 1.24421 21.0224 1.6087 21.3589 2.07635C21.6954 2.544 21.875 3.09381 21.875 3.65625C21.874 4.41018 21.5511 5.13298 20.9769 5.66609C20.4028 6.1992 19.6244 6.4991 18.8125 6.5ZM18.8125 2.4375C18.5529 2.4375 18.2992 2.50898 18.0833 2.6429C17.8675 2.77682 17.6993 2.96716 17.5999 3.18986C17.5006 3.41255 17.4746 3.6576 17.5252 3.89402C17.5759 4.13043 17.7009 4.34759 17.8844 4.51804C18.068 4.68848 18.3018 4.80456 18.5564 4.85158C18.811 4.89861 19.0749 4.87447 19.3148 4.78223C19.5546 4.68999 19.7596 4.53377 19.9038 4.33335C20.048 4.13293 20.125 3.8973 20.125 3.65625C20.1246 3.33313 19.9862 3.02335 19.7401 2.79487C19.4941 2.56639 19.1605 2.43787 18.8125 2.4375Z" fill="white"/>
</g>
<defs>
<clipPath id="clip0_213_15">
<rect width="28" height="26" fill="white"/>
</clipPath>
</defs>
</svg>
