<!DOCTYPE svg PUBLIC "-//W3C//DTD SVG 1.1//EN" "http://www.w3.org/Graphics/SVG/1.1/DTD/svg11.dtd">
<!-- Uploaded to: SVG Repo, www.svgrepo.com, Transformed by: SVG Repo Mixer Tools -->
<svg width="800px" height="800px" viewBox="-1.44 -1.44 26.88 26.88" fill="none" xmlns="http://www.w3.org/2000/svg" transform="rotate(0)">
<g id="SVGRepo_bgCarrier" stroke-width="0" transform="translate(0,0), scale(1)">
<rect x="-1.44" y="-1.44" width="26.88" height="26.88" rx="13.44" fill="#80ff00" strokewidth="0"/>
</g>
<g id="SVGRepo_tracerCarrier" stroke-linecap="round" stroke-linejoin="round"/>
<g id="SVGRepo_iconCarrier"> <path d="M12 16.0004L12 20.9999M12 16.0004C11.1643 16.6281 10.1256 17 9 17C6.23858 17 4 14.7614 4 12C4 9.93595 5.25068 8.16402 7.03555 7.40068C7.33166 4.92182 9.4414 3 12 3C14.5586 3 16.6683 4.92182 16.9645 7.40068C18.7493 8.16402 20 9.93595 20 12C20 14.7614 17.7614 17 15 17C13.8744 17 12.8357 16.6281 12 16.0004ZM9 20.9999H15" stroke="#000000" stroke-width="1.704" stroke-linecap="round" stroke-linejoin="round"/> </g>
</svg>