<svg width="41" height="40" viewBox="0 0 41 40" fill="none" xmlns="http://www.w3.org/2000/svg">
<path d="M15.5 17.5L20.5 16.25L25.5 17.5" stroke="white" stroke-width="2" stroke-linecap="round"/>
<path d="M8.41663 15L6.82241 15.3543C5.59104 15.6279 4.75641 16.776 4.87601 18.0317L5.35384 23.049C5.44342 23.9897 6.05576 24.7995 6.93646 25.142L13 27.5" stroke="white" stroke-width="2" stroke-linecap="round"/>
<path d="M32.7806 15L34.2456 15.3555C35.4462 15.6468 36.254 16.7714 36.1466 18.0022L35.6824 23.3249C35.5979 24.294 34.959 25.126 34.0446 25.4578L28.4166 27.5" stroke="white" stroke-width="2" stroke-linecap="round"/>
<path d="M9.12085 14.5897C9.12085 11.3836 17.5873 11.3836 17.5873 11.3836L18.2704 10.1579C18.5383 9.67731 19.0454 9.37939 19.5957 9.37939H21.537C22.0872 9.37939 22.5943 9.67723 22.8622 10.1578L23.5453 11.3832C23.5453 11.3832 31.8792 11.3836 31.8792 14.5897C31.8792 30.6205 20.8671 30.6205 20.8671 30.6205H20.1329C20.1329 30.6205 9.12085 30.6205 9.12085 14.5897Z" stroke="white" stroke-width="2" stroke-linecap="round" stroke-linejoin="round"/>
</svg>
