<svg width="30" height="30" viewBox="0 0 30 30" fill="none" xmlns="http://www.w3.org/2000/svg">
<path d="M3.42419 17.3201H26.5759V20.788C26.5759 22.6307 25.8438 24.3979 24.5409 25.7009C23.2379 27.0039 21.4706 27.7359 19.6279 27.7359H10.3721C8.52941 27.7359 6.76218 27.0039 5.45919 25.7009C4.1562 24.3979 3.42419 22.6307 3.42419 20.788V17.3201Z" stroke="white" stroke-width="2" stroke-miterlimit="10"/>
<path d="M20.7879 17.3201H15V23.108H20.7879V17.3201Z" stroke="white" stroke-width="2" stroke-miterlimit="10"/>
<path d="M28.8958 17.3201H1.10413" stroke="white" stroke-width="2" stroke-miterlimit="10"/>
<path d="M3.42419 17.5617V5.73208C3.42419 4.81233 3.78956 3.93025 4.43992 3.27989C5.09028 2.62953 5.97236 2.26416 6.89211 2.26416H8.10044C9.01179 2.27686 9.8815 2.64783 10.5214 3.29682C11.1614 3.94581 11.5201 4.82064 11.52 5.73208V6.94041" stroke="white" stroke-width="2" stroke-miterlimit="10"/>
<path d="M13.84 6.89209H9.21204" stroke="white" stroke-width="2" stroke-miterlimit="10"/>
</svg>
