<svg width="30" height="34" viewBox="0 0 30 34" fill="none" xmlns="http://www.w3.org/2000/svg">
<path d="M18.4312 3.1875C18.4312 3.1875 17.0965 3.71875 15 3.71875C12.9035 3.71875 11.5688 3.1875 11.5688 3.1875C11.3578 3.18751 11.1484 3.22792 10.9494 3.30703L1.875 6.90625L2.84941 12.75L5.71348 13.1166C6.06422 13.1615 6.3872 13.3544 6.6183 13.6568C6.8494 13.9591 6.97171 14.349 6.96094 14.7488L6.5625 30.8125H23.4375L23.0391 14.7488C23.0283 14.349 23.1506 13.9591 23.3817 13.6568C23.6128 13.3544 23.9358 13.1615 24.2865 13.1166L27.1506 12.75L28.125 6.90625L19.0506 3.30703C18.8516 3.22792 18.6422 3.18751 18.4312 3.1875Z" stroke="white" stroke-width="2" stroke-linecap="round" stroke-linejoin="round"/>
<path d="M19.5299 3.49707C19.2642 4.62874 18.676 5.62921 17.8568 6.3429C17.0376 7.0566 16.0333 7.44353 15 7.44353C13.9667 7.44353 12.9624 7.0566 12.1432 6.3429C11.324 5.62921 10.7358 4.62874 10.4701 3.49707" stroke="white" stroke-width="2" stroke-linecap="round" stroke-linejoin="round"/>
</svg>
